<?xml version="1.0" encoding="UTF-8" standalone="no"?>
<!-- Created with Inkscape (http://www.inkscape.org/) -->

<svg
   width="43.707573mm"
   height="10.85119mm"
   viewBox="0 0 43.707574 10.85119"
   version="1.1"
   id="svg1"
   xml:space="preserve"
   xmlns="http://www.w3.org/2000/svg"
   xmlns:svg="http://www.w3.org/2000/svg"><defs
     id="defs1" /><g
     id="layer1"
     transform="translate(-37.851534,-130.97228)"><g
       id="g4"
       transform="matrix(0.27454842,0,0,0.27454842,28.41808,95.430312)"
       style="stroke-width:3.64234"><text
         xml:space="preserve"
         style="font-style:normal;font-variant:normal;font-weight:normal;font-stretch:normal;font-size:21.6158px;line-height:1;font-family:'League Spartan';-inkscape-font-specification:'League Spartan';font-variant-ligatures:normal;font-variant-caps:normal;font-variant-numeric:normal;font-variant-east-asian:normal;letter-spacing:0.529167px;opacity:0.99;fill:#203a43;fill-opacity:1;stroke-width:3.75846"
         x="82.28981"
         y="145.58188"
         id="text1"><tspan
           id="tspan3"
           x="82.28981"
           y="145.58188"
           style="stroke-width:3.75846" /></text><g
         style="fill:#e9967a;stroke-width:0.484046"
         id="g2"
         transform="matrix(0.04977325,0,0,0.04977325,30.378033,173.38663)"><path
           d="m 80,-120 v -80 h 360 v -447 q -26,-9 -45,-28 -19,-19 -28,-45 H 240 l 120,280 q 0,50 -41,85 -41,35 -99,35 -58,0 -99,-35 -41,-35 -41,-85 l 120,-280 h -80 v -80 h 247 q 12,-35 43,-57.5 31,-22.5 70,-22.5 39,0 70,22.5 31,22.5 43,57.5 h 247 v 80 h -80 l 120,280 q 0,50 -41,85 -41,35 -99,35 -58,0 -99,-35 -41,-35 -41,-85 L 720,-720 H 593 q -9,26 -28,45 -19,19 -45,28 v 447 h 360 v 80 z m 585,-320 h 150 l -75,-174 z m -520,0 h 150 l -75,-174 z m 335,-280 q 17,0 28.5,-11.5 Q 520,-743 520,-760 520,-777 508.5,-788.5 497,-800 480,-800 q -17,0 -28.5,11.5 -11.5,11.5 -11.5,28.5 0,17 11.5,28.5 11.5,11.5 28.5,11.5 z"
           id="path1"
           style="stroke-width:0.484046" /></g></g><g
       id="text5"
       style="font-size:7.55952px;line-height:1;font-family:'League Spartan';-inkscape-font-specification:'League Spartan';letter-spacing:0.264583px;opacity:0.99;fill:#e9967a;stroke-width:1.03188"
       aria-label="CECILIA&#10;CARDOSO"><path
         style="font-size:7.05556px;font-family:'JetBrains Mono';-inkscape-font-specification:'JetBrains Mono, @wght=800';font-variation-settings:'wght' 800"
         d="m 52.659523,136.26395 q -0.515055,0 -0.903111,-0.1905 -0.388056,-0.19756 -0.606778,-0.54328 -0.211667,-0.35278 -0.211667,-0.81845 v -2.18722 q 0,-0.47272 0.211667,-0.81845 0.218722,-0.34572 0.606778,-0.53622 0.388056,-0.19755 0.903111,-0.19755 0.522112,0 0.903112,0.19755 0.388056,0.1905 0.599723,0.53622 0.218722,0.34573 0.218722,0.81845 h -1.058334 q 0,-0.31045 -0.176389,-0.47272 -0.169333,-0.16228 -0.486834,-0.16228 -0.3175,0 -0.493889,0.16228 -0.169333,0.16227 -0.169333,0.47272 v 2.18722 q 0,0.30339 0.169333,0.47272 0.176389,0.16228 0.493889,0.16228 0.317501,0 0.486834,-0.16228 0.176389,-0.16933 0.176389,-0.47272 h 1.058334 q 0,0.46567 -0.218722,0.81845 -0.211667,0.34572 -0.599723,0.54328 -0.381,0.1905 -0.903112,0.1905 z m 2.917477,-0.0706 v -5.15056 h 3.175002 v 0.90311 h -2.137835 v 1.15711 h 1.89089 v 0.90312 h -1.89089 v 1.28411 h 2.137835 v 0.90311 z m 6.078367,0.0706 q -0.515056,0 -0.903111,-0.1905 -0.388056,-0.19756 -0.606779,-0.54328 -0.211666,-0.35278 -0.211666,-0.81845 v -2.18722 q 0,-0.47272 0.211666,-0.81845 0.218723,-0.34572 0.606779,-0.53622 0.388055,-0.19755 0.903111,-0.19755 0.522112,0 0.903112,0.19755 0.388056,0.1905 0.599723,0.53622 0.218722,0.34573 0.218722,0.81845 H 62.31859 q 0,-0.31045 -0.176389,-0.47272 -0.169333,-0.16228 -0.486834,-0.16228 -0.3175,0 -0.493889,0.16228 -0.169333,0.16227 -0.169333,0.47272 v 2.18722 q 0,0.30339 0.169333,0.47272 0.176389,0.16228 0.493889,0.16228 0.317501,0 0.486834,-0.16228 0.176389,-0.16933 0.176389,-0.47272 h 1.058334 q 0,0.46567 -0.218722,0.81845 -0.211667,0.34572 -0.599723,0.54328 -0.381,0.1905 -0.903112,0.1905 z m 2.917477,-0.0706 v -0.91722 H 65.5959 v -3.31612 h -1.023056 v -0.91722 h 3.104446 v 0.91722 h -1.023056 v 3.31612 h 1.023056 v 0.91722 z m 4.603755,0 v -5.15056 h 1.058334 v 4.16278 h 2.08139 v 0.98778 z m 4.392088,0 v -0.91722 h 1.023056 v -3.31612 h -1.023056 v -0.91722 h 3.104446 v 0.91722 h -1.023056 v 3.31612 h 1.023056 v 0.91722 z m 4.109867,0 1.262945,-5.15056 h 1.340557 l 1.277056,5.15056 h -1.079501 l -0.246944,-1.16417 h -1.227668 l -0.246944,1.16417 z m 1.502834,-2.01083 h 0.867834 l -0.246945,-1.24178 q -0.04939,-0.26811 -0.105833,-0.52917 -0.04939,-0.26811 -0.07761,-0.41628 -0.02822,0.14817 -0.07761,0.40922 -0.04233,0.26106 -0.09878,0.52917 z"
         id="path7" /><path
         style="font-size:7.05556px;font-family:'JetBrains Mono';-inkscape-font-specification:'JetBrains Mono, @wght=800';font-variation-settings:'wght' 800"
         d="m 52.659523,141.82347 q -0.515055,0 -0.903111,-0.1905 -0.388056,-0.19756 -0.606778,-0.54328 -0.211667,-0.35278 -0.211667,-0.81845 v -2.18722 q 0,-0.47272 0.211667,-0.81845 0.218722,-0.34572 0.606778,-0.53622 0.388056,-0.19755 0.903111,-0.19755 0.522112,0 0.903112,0.19755 0.388056,0.1905 0.599723,0.53622 0.218722,0.34573 0.218722,0.81845 h -1.058334 q 0,-0.31045 -0.176389,-0.47272 -0.169333,-0.16228 -0.486834,-0.16228 -0.3175,0 -0.493889,0.16228 -0.169333,0.16227 -0.169333,0.47272 v 2.18722 q 0,0.30339 0.169333,0.47272 0.176389,0.16228 0.493889,0.16228 0.317501,0 0.486834,-0.16228 0.176389,-0.16933 0.176389,-0.47272 h 1.058334 q 0,0.46567 -0.218722,0.81845 -0.211667,0.34572 -0.599723,0.54328 -0.381,0.1905 -0.903112,0.1905 z m 2.529421,-0.0706 1.262945,-5.15056 h 1.340557 l 1.277056,5.15056 h -1.079501 l -0.246944,-1.16417 h -1.227668 l -0.246944,1.16417 z m 1.502834,-2.01083 h 0.867834 l -0.246944,-1.24178 q -0.04939,-0.26811 -0.105834,-0.52917 -0.04939,-0.26811 -0.07761,-0.41628 -0.02822,0.14817 -0.07761,0.40922 -0.04233,0.26106 -0.09878,0.52917 z m 3.27731,2.01083 v -5.15056 h 1.658057 q 0.550334,0 0.952501,0.1905 0.402167,0.1905 0.620889,0.54328 0.225778,0.35278 0.225778,0.83256 0,0.50094 -0.246945,0.89605 -0.239889,0.39511 -0.656167,0.5715 l 0.973668,2.11667 h -1.150057 l -0.832556,-1.94733 h -0.493889 v 1.94733 z m 1.051279,-2.86456 h 0.606778 q 0.352778,0 0.543278,-0.17639 0.197556,-0.17639 0.197556,-0.49389 0,-0.33161 -0.197556,-0.51505 -0.1905,-0.18345 -0.543278,-0.18345 h -0.606778 z m 3.432532,2.86456 v -5.15056 h 1.672168 q 0.536223,0 0.931334,0.20461 0.402167,0.20461 0.620889,0.57856 0.225778,0.36689 0.225778,0.86783 v 1.8415 q 0,0.49389 -0.225778,0.86784 -0.218722,0.37394 -0.620889,0.58561 -0.395111,0.20461 -0.931334,0.20461 z m 1.058334,-0.98778 h 0.613834 q 0.324556,0 0.522111,-0.18344 0.197556,-0.18345 0.197556,-0.48684 v -1.8415 q 0,-0.29633 -0.197556,-0.47978 -0.197555,-0.18344 -0.522111,-0.18344 h -0.613834 z m 5.111756,1.05834 q -0.515056,0 -0.896056,-0.1905 -0.381,-0.19756 -0.592667,-0.54328 -0.204611,-0.35278 -0.204611,-0.81845 v -2.18722 q 0,-0.46567 0.204611,-0.81139 0.211667,-0.35278 0.592667,-0.54328 0.381,-0.19755 0.896056,-0.19755 0.522111,0 0.896056,0.19755 0.381,0.1905 0.585612,0.54328 0.211666,0.34572 0.211666,0.81139 v 2.18722 q 0,0.46567 -0.211666,0.81845 -0.204612,0.34572 -0.585612,0.54328 -0.373945,0.1905 -0.896056,0.1905 z m 0,-0.91723 q 0.3175,0 0.472723,-0.16228 0.162277,-0.16933 0.162277,-0.47272 v -2.18722 q 0,-0.31045 -0.155222,-0.47272 -0.155222,-0.16228 -0.479778,-0.16228 -0.324556,0 -0.479778,0.16228 -0.155222,0.16227 -0.155222,0.47272 v 2.18722 q 0,0.30339 0.155222,0.47272 0.162278,0.16228 0.479778,0.16228 z m 4.497921,0.91723 q -0.543278,0 -0.945445,-0.18345 -0.402167,-0.18344 -0.620889,-0.51506 -0.218723,-0.33161 -0.218723,-0.78316 h 1.058334 q 0,0.26105 0.197556,0.41628 0.204611,0.14816 0.550334,0.14816 0.331611,0 0.515056,-0.14816 0.1905,-0.14817 0.1905,-0.40923 0,-0.22577 -0.141112,-0.38805 -0.141111,-0.16228 -0.395111,-0.21872 l -0.522111,-0.11995 q -0.656167,-0.15522 -1.023057,-0.5715 -0.359833,-0.42333 -0.359833,-1.03011 0,-0.45156 0.204611,-0.78317 0.211667,-0.33867 0.592667,-0.52211 0.381,-0.18344 0.903112,-0.18344 0.790223,0 1.248834,0.39511 0.465667,0.38805 0.465667,1.05128 h -1.058334 q 0,-0.24695 -0.176389,-0.38806 -0.169333,-0.14111 -0.493889,-0.14111 -0.303389,0 -0.465667,0.14111 -0.162278,0.13405 -0.162278,0.38806 0,0.22577 0.127,0.38805 0.134056,0.15522 0.373945,0.21167 l 0.550333,0.127 q 0.68439,0.15522 1.037168,0.56444 0.352778,0.40217 0.352778,1.03011 0,0.45156 -0.225778,0.79728 -0.218723,0.34573 -0.62089,0.53623 -0.395111,0.1905 -0.938389,0.1905 z m 4.497923,0 q -0.515056,0 -0.896056,-0.1905 -0.381001,-0.19756 -0.592667,-0.54328 -0.204612,-0.35278 -0.204612,-0.81845 v -2.18722 q 0,-0.46567 0.204612,-0.81139 0.211666,-0.35278 0.592667,-0.54328 0.381,-0.19755 0.896056,-0.19755 0.522111,0 0.896056,0.19755 0.381,0.1905 0.585611,0.54328 0.211667,0.34572 0.211667,0.81139 v 2.18722 q 0,0.46567 -0.211667,0.81845 -0.204611,0.34572 -0.585611,0.54328 -0.373945,0.1905 -0.896056,0.1905 z m 0,-0.91723 q 0.3175,0 0.472722,-0.16228 0.162278,-0.16933 0.162278,-0.47272 v -2.18722 q 0,-0.31045 -0.155222,-0.47272 -0.155222,-0.16228 -0.479778,-0.16228 -0.324556,0 -0.479778,0.16228 -0.155223,0.16227 -0.155223,0.47272 v 2.18722 q 0,0.30339 0.155223,0.47272 0.162278,0.16228 0.479778,0.16228 z"
         id="path8" /></g></g></svg>
